<svg xmlns="http://www.w3.org/2000/svg" width="22" height="14" viewBox="0 0 22 14" fill="none">
                                                <path opacity="0.8" d="M11 5.6C11.5658 5.6 12.0993 5.70937 12.6006 5.92812C13.1019 6.14687 13.5387 6.44583 13.9111 6.825C14.2835 7.20417 14.5807 7.6526 14.8027 8.17031C15.0247 8.68802 15.1322 9.23125 15.125 9.8C15.125 10.3833 15.0176 10.9266 14.8027 11.4297C14.5879 11.9328 14.2943 12.3776 13.9219 12.7641C13.5495 13.1505 13.109 13.4531 12.6006 13.6719C12.0921 13.8906 11.5586 14 11 14C10.4271 14 9.89355 13.8906 9.39941 13.6719C8.90527 13.4531 8.46842 13.1542 8.08887 12.775C7.70931 12.3958 7.41211 11.951 7.19727 11.4406C6.98242 10.9302 6.875 10.3833 6.875 9.8C6.875 9.22396 6.98242 8.68073 7.19727 8.17031C7.41211 7.6599 7.70573 7.2151 8.07812 6.83594C8.45052 6.45677 8.88737 6.15417 9.38867 5.92812C9.88997 5.70208 10.4271 5.59271 11 5.6ZM11 12.6C11.3796 12.6 11.734 12.5271 12.0635 12.3812C12.3929 12.2354 12.6865 12.0349 12.9443 11.7797C13.2021 11.5245 13.3991 11.2292 13.5352 10.8938C13.6712 10.5583 13.7428 10.1937 13.75 9.8C13.75 9.41354 13.6784 9.0526 13.5352 8.71719C13.3919 8.38177 13.195 8.08281 12.9443 7.82031C12.6937 7.55781 12.4036 7.35729 12.0742 7.21875C11.7448 7.08021 11.3867 7.00729 11 7C10.6204 7 10.266 7.07292 9.93652 7.21875C9.6071 7.36458 9.31348 7.5651 9.05566 7.82031C8.79785 8.07552 8.60091 8.37083 8.46484 8.70625C8.32878 9.04167 8.25716 9.40625 8.25 9.8C8.25 10.1865 8.32161 10.5474 8.46484 10.8828C8.60807 11.2182 8.80501 11.5172 9.05566 11.7797C9.30632 12.0422 9.59635 12.2427 9.92578 12.3812C10.2552 12.5198 10.6133 12.5927 11 12.6ZM11 0C12.0241 0 13.041 0.127604 14.0508 0.382812C15.0605 0.638021 16.013 1.02083 16.9082 1.53125C17.8034 2.04167 18.6126 2.66146 19.3359 3.39062C20.0592 4.11979 20.6536 4.97292 21.1191 5.95C21.4056 6.55521 21.624 7.17865 21.7744 7.82031C21.9248 8.46198 22 9.12187 22 9.8H20.625C20.625 8.93958 20.4961 8.13385 20.2383 7.38281C19.9805 6.63177 19.626 5.94635 19.1748 5.32656C18.7236 4.70677 18.1865 4.1526 17.5635 3.66406C16.9404 3.17552 16.278 2.76354 15.5762 2.42812C14.8743 2.09271 14.126 1.8375 13.3311 1.6625C12.5361 1.4875 11.7591 1.4 11 1.4C10.2266 1.4 9.44954 1.4875 8.66895 1.6625C7.88835 1.8375 7.14355 2.09271 6.43457 2.42812C5.72559 2.76354 5.05957 3.17552 4.43652 3.66406C3.81348 4.1526 3.27995 4.70677 2.83594 5.32656C2.39193 5.94635 2.03385 6.63177 1.76172 7.38281C1.48958 8.13385 1.36068 8.93958 1.375 9.8H0C0 9.12917 0.0751953 8.47292 0.225586 7.83125C0.375977 7.18958 0.594401 6.5625 0.880859 5.95C1.33919 4.9875 1.93001 4.13802 2.65332 3.40156C3.37663 2.6651 4.18945 2.04167 5.0918 1.53125C5.99414 1.02083 6.94661 0.641667 7.94922 0.39375C8.95182 0.145833 9.96875 0.0145833 11 0Z" fill="white"></path>
                                            </svg>